# AST/ASF file generated using VICON BodyLanguage
# -----------------------------------------------
:version 1.10
:name VICON
:units
  mass 1.0
  length 0.45
  angle deg
:documentation
   .ast/.asf automatically generated from VICON data using
   VICON BodyBuilder and BodyLanguage model FoxedUp or BRILLIANT.MOD
:root
   order TX TY TZ RX RY RZ
   axis XYZ
   position 0 0 0  
   orientation 0 0 0 
:bonedata
  begin
     id 1 
     name lhipjoint
     direction 0.710188 -0.616876 0.339259 
     length 2.5669 
     axis 0 0 0  XYZ
  end
  begin
     id 2 
     name lfemur
     direction 0.34202 -0.939693 0  
     length 7.12796  
     axis 0 0 20  XYZ
    dof rx ry rz
    limits (-160.0 20.0)
           (-70.0 70.0)
           (-60.0 70.0)
  end
  begin
     id 3 
     name ltibia
     direction 0.34202 -0.939693 0   
     length 7.58108   
     axis 0 0 20   XYZ
    dof rx
    limits (-10.0 170.0)
  end
  begin
     id 4 
     name lfoot
     direction 0.0669471 -0.183936 0.980656   
     length 2.17365   
     axis -90 7.62852e-016 20   XYZ
    dof rx rz
    limits (-45.0 90.0)
           (-70.0 20.0)
  end
  begin
     id 5 
     name ltoes
     direction 1.53508e-011 -4.21705e-011 1   
     length 1.09427   
     axis -90 7.62852e-016 20   XYZ
    dof rx
    limits (-90.0 20.0)
  end
  begin
     id 6 
     name rhipjoint
     direction -0.700191 -0.625589 0.34405   
     length 2.53115  
     axis 0 0 0  XYZ 
  end
  begin
     id 7 
     name rfemur
     direction -0.34202 -0.939693 0   
     length 7.33006   
     axis 0 0 -20   XYZ
    dof rx ry rz
    limits (-160.0 20.0)
           (-70.0 70.0)
           (-70.0 60.0)
  end
  begin
     id 8 
     name rtibia
     direction -0.34202 -0.939693 0   
     length 7.64926   
     axis 0 0 -20   XYZ
    dof rx
    limits (-10.0 170.0)
 end
 begin
     id 9 
     name rfoot
     direction -0.0688927 -0.189281 0.979503   
     length 2.20493  
     axis -90 -7.62852e-016 -20   XYZ
    dof rx rz
    limits (-45.0 90.0)
           (-20.0 70.0)
  end
  begin
     id 10 
     name rtoes
     direction -1.53567e-011 -4.21933e-011 1   
     length 1.10919   
     axis -90 -7.62852e-016 -20   XYZ
    dof rx
    limits (-90.0 20.0)
  end
  begin
     id 11 
     name lowerback
     direction -0.0167868 0.989873 -0.140959   
     length 2.14596   
     axis 0 0 0   XYZ
    dof rx ry rz
    limits (-20.0 45.0)
           (-30.0 30.0)
           (-30.0 30.0)
  end
  begin
     id 12 
     name upperback
     direction 0.0129109 0.998033 0.0613525   
     length 2.10457   
     axis 0 0 0   XYZ
    dof rx ry rz
    limits (-20.0 45.0)
           (-30.0 30.0)
           (-30.0 30.0)
  end
  begin
     id 13 
     name thorax
     direction 0.0177047 0.991119 0.131797   
     length 2.17652   
     axis 0 0 0   XYZ
    dof rx ry rz
    limits (-20.0 45.0)
           (-30.0 30.0)
           (-30.0 30.0)
  end
  begin
     id 14 
     name lowerneck
     direction -0.0336893 0.997548 0.0613464   
     length 1.8912   
     axis 0 0 0   XYZ
    dof rx ry rz
    limits (-20.0 45.0)
           (-30.0 30.0)
           (-30.0 30.0)
  end
  begin
     id 15 
     name upperneck
     direction 0.0435909 0.997179 -0.0611028   
     length 1.8829   
     axis 0 0 0   XYZ
    dof rx ry rz
    limits (-20.0 45.0)
           (-30.0 30.0)
           (-30.0 30.0)
  end
  begin
     id 16
     name head
     direction 0.0175076 0.999444 -0.0283782  
     length 1.93197  
     axis 0 0 0   XYZ
    dof rx ry rz
    limits (-20.0 45.0)
           (-30.0 30.0)
           (-30.0 30.0)
  end
  begin
     id 17 
     name lclavicle
     direction 0.919164 0.389875 0.0559876  
     length 3.60004  
     axis 0 0 0   XYZ
    dof ry rz
    limits (-20.0 10.0)
           (0.0 20.0)
  end
  begin
     id 18 
     name lhumerus
     direction 1 -4.48958e-011 6.89191e-027   
     length 5.43301   
     axis 180 -30 -90   XYZ
    dof rx ry rz
    limits (-60.0 90.0)
           (-90.0 90.0)
           (-90.0 90.0)
  end
  begin
     id 19
     name lradius
     direction 1 -4.4897e-011 3.24727e-027   
     length 3.15936   
     axis 180 -30 -90   XYZ
    dof rx
    limits (-10.0 170.0)
  end
  begin
     id 20
     name lwrist
     direction 1 -4.4897e-011 9.00228e-027   
     length 1.57968   
     axis -6.29373e-015 90 90   XYZ
    dof ry
    limits (-180.0 0.0)
 end
  begin
     id 21 
     name lhand
     direction 1 -4.48968e-011 1.80042e-026   
     length 0.712827   
     axis -1.14882e-014 90 90   XYZ
    dof rx rz
    limits (-90.0 90.0)
           (-45.0 45.0)
  end
  begin
     id 22 
     name lfingers
     direction 1 -4.49019e-011 3.60267e-026   
     length 0.574699   
     axis -2.29769e-014 90 90   XYZ
    dof rx
    limits (0.0 90.0)
  end
  begin
     id 23
     name lthumb
     direction 0.707107 -6.3498e-011 0.707107   
     length 0.825157   
     axis -90 45 5.37419e-014   XYZ
    dof rx rz
    limits (-45.0 45.0)
           (-45.0 45.0)
  end
  begin
     id 24 
     name rclavicle
     direction -0.890334 0.455305 -0.00132111   
     length 3.51494  
     axis 0 0 0   XYZ 
    dof ry rz
    limits (-10.0 20.0)
           (-20.0 0.0)
  end
  begin
     id 25 
     name rhumerus
     direction -1 -4.48967e-011 5.07175e-028  
     length 5.34194   
     axis 180 30 90   XYZ
    dof rx ry rz
    limits (-90.0 60.0)
           (-90.0 90.0)
           (-90.0 90.0)
  end
  begin
     id 26 
     name rradius
     direction -1 -4.48955e-011 3.30467e-027   
     length 3.19351   
     axis 180 30 90   XYZ
    dof rx
    limits (-10.0 170.0)
  end
  begin
     id 27 
     name rwrist
     direction -1 -4.48968e-011 9.00208e-027   
     length 1.59676   
     axis -6.29373e-015 -90 -90   XYZ
    dof ry
    limits (-180.0 0.0)
  end
  begin
     id 28
     name rhand
     direction -1 -4.49e-011 1.80099e-026   
     length 0.743862   
     axis -1.14882e-014 -90 -90   XYZ
    dof rx rz
    limits (-90.0 90.0)
           (-45.0 45.0)
  end
  begin
     id 29
     name rfingers
     direction -1 -4.49009e-011 3.6023e-026   
     length 0.599721   
     axis -2.29769e-014 -90 -90   XYZ
    dof rx
    limits (0.0 90.0)
  end
  begin
     id 30
     name rthumb
     direction -0.707107 -6.35025e-011 0.707107   
     length 0.861083   
     axis -90 -45 -5.37419e-014   XYZ
    dof rx rz
    limits (-45.0 45.0)
           (-45.0 45.0)
  end
:hierarchy
  begin
    root lhipjoint rhipjoint lowerback
    lhipjoint lfemur
    lfemur ltibia
    ltibia lfoot
    lfoot ltoes
    rhipjoint rfemur
    rfemur rtibia
    rtibia rfoot
    rfoot rtoes
    lowerback upperback
    upperback thorax
    thorax lowerneck lclavicle rclavicle
    lowerneck upperneck
    upperneck head
    lclavicle lhumerus
    lhumerus lradius
    lradius lwrist
    lwrist lhand lthumb
    lhand lfingers
    rclavicle rhumerus
    rhumerus rradius
    rradius rwrist
    rwrist rhand rthumb
    rhand rfingers
  end

#!OML:ASF H:\Martial Arts Walks\Project 1\Capture day 1\Session 1\male.ASF
:FULLY-SPECIFIED
:DEGREES
488
root -7.51495 15.5786 -23.6676 2.73494 0.185993 -0.230513
lowerback 6.98183 5.70094 -2.79089
upperback -3.03902 7.32613 -0.434908
thorax -7.39034 3.71071 0.105312
lowerneck -2.83927 -7.75863 -8.88913
upperneck 12.1567 -10.64 6.6021
head 4.94464 -5.28112 2.86792
rclavicle -6.76109e-014 -1.98785e-015
rhumerus -64.5138 83.9637 -142.591
rradius 87.1608
rwrist -3.43721
rhand -16.0118 -11.3261
rfingers 7.12502
rthumb 10.1888 -41.0594
lclavicle -6.76109e-014 -1.98785e-015
lhumerus -75.0703 -32.0813 108.886
lradius 102.814
lwrist -0.807805
lhand -39.5313 34.4307
lfingers 7.12502
lthumb -12.5159 64.0359
rfemur -29.8315 -0.627416 25.4457
rtibia 64.9432
rfoot -32.4416 -0.157955
rtoes 7.41226
lfemur -28.4038 -2.49921 -25.6256
ltibia 61.7194
lfoot -31.3836 9.88329
ltoes 6.45506
489
root -7.51286 15.5766 -23.6694 2.73831 0.200236 -0.291822
lowerback 7.01779 5.69646 -2.74083
upperback -3.04885 7.32491 -0.420268
thorax -7.41686 3.70804 0.0890522
lowerneck -2.81781 -7.755 -8.90749
upperneck 12.1346 -10.6375 6.62701
head 4.93634 -5.27995 2.87978
rclavicle -2.54221e-014 4.37326e-015
rhumerus -64.7751 83.9919 -142.841
rradius 87.1738
rwrist -3.53702
rhand -16.1054 -11.3603
rfingers 7.12502
rthumb 10.0985 -41.098
lclavicle -2.54221e-014 4.37326e-015
lhumerus -75.08 -32.1194 108.903
lradius 102.786
lwrist -0.83484
lhand -39.4766 34.4402
lfingers 7.12502
lthumb -12.4632 64.0486
rfemur -29.8509 -0.707448 25.5044
rtibia 64.9581
rfoot -32.4575 -0.0761987
rtoes 7.39576
lfemur -28.4493 -2.52473 -25.5695
ltibia 61.7802
lfoot -31.3685 9.92468
ltoes 6.5417
490
root -7.51023 15.5745 -23.6711 2.73813 0.217103 -0.303965
lowerback 7.03871 5.69655 -2.72912
upperback -3.04184 7.32566 -0.418321
thorax -7.42013 3.70774 0.0828694
lowerneck -2.81121 -7.76574 -8.89171
upperneck 12.107 -10.6482 6.59505
head 4.92508 -5.28637 2.86735
rclavicle 7.52039e-014 5.96354e-015
rhumerus -64.9024 83.9957 -142.943
rradius 87.1832
rwrist -3.59423
rhand -16.1074 -11.3199
rfingers 7.12502
rthumb 10.0965 -41.0577
lclavicle 7.52039e-014 5.96354e-015
lhumerus -75.1002 -32.164 108.924
lradius 102.779
lwrist -0.924594
lhand -39.4735 34.3042
lfingers 7.12502
lthumb -12.4602 63.9127
rfemur -29.8736 -0.811521 25.502
rtibia 64.9834
rfoot -32.4685 0.0414326
rtoes 7.46663
lfemur -28.4779 -2.56769 -25.5741
ltibia 61.8281
lfoot -31.3388 10.0457
ltoes 6.54071
491
root -7.50713 15.5726 -23.6736 2.7425 0.235503 -0.33462
lowerback 7.07472 5.69283 -2.71026
upperback -3.0352 7.32252 -0.40241
thorax -7.43329 3.70549 0.0861698
lowerneck -2.85874 -7.77963 -8.86853
upperneck 12.1129 -10.6575 6.53443
head 4.93126 -5.29199 2.84237
rclavicle 4.39124e-014 2.78299e-015
rhumerus -64.9701 84.0385 -142.984
rradius 87.1787
rwrist -3.66193
rhand -16.2081 -11.3084
rfingers 7.12502
rthumb 9.99939 -41.0509
lclavicle 4.39124e-014 2.78299e-015
lhumerus -75.0922 -32.2041 108.942
lradius 102.77
lwrist -0.979732
lhand -39.4993 34.3329
lfingers 7.12502
lthumb -12.4851 63.9399
rfemur -29.9072 -0.916402 25.5178
rtibia 65.0093
rfoot -32.4747 0.122023
rtoes 7.46207
lfemur -28.5187 -2.59833 -25.5579
ltibia 61.8831
lfoot -31.311 10.1361
ltoes 6.55719
